<?xml version="1.0" encoding="utf-8"?>
<!-- Generator: Adobe Illustrator 28.3.0, SVG Export Plug-In . SVG Version: 6.00 Build 0)  -->
<svg version="1.1" id="Livello_1" xmlns="http://www.w3.org/2000/svg" xmlns:xlink="http://www.w3.org/1999/xlink" x="0px" y="0px"
	 viewBox="0 0 830 160" style="enable-background:new 0 0 830 160;" xml:space="preserve">
<style type="text/css">
	.st0{fill:#FFFFFF;}
	.st1{fill:#1D1D1B;}
</style>
<rect y="0" class="st0" width="830" height="160"/>
<g>
	<path class="st1" d="M79.2,47.2v24.4h0.3c1.7-2.7,3.8-4.7,6.3-5.9c2.6-1.2,5.1-1.9,7.5-1.9c3.5,0,6.3,0.5,8.6,1.4
		c2.2,0.9,4,2.2,5.3,3.9c1.3,1.7,2.2,3.7,2.7,6.1c0.5,2.4,0.8,5,0.8,7.9v28.8h-13V85.5c0-3.9-0.6-6.8-1.8-8.7
		c-1.2-1.9-3.4-2.8-6.5-2.8c-3.5,0-6.1,1-7.7,3.1c-1.6,2.1-2.4,5.5-2.4,10.3v24.5h-13V47.2H79.2z"/>
	<path class="st1" d="M145.8,76c-1.5-1.7-3.9-2.5-7.1-2.5c-2.1,0-3.8,0.3-5.2,1c-1.4,0.7-2.5,1.6-3.3,2.6c-0.8,1-1.4,2.1-1.7,3.3
		c-0.3,1.1-0.5,2.2-0.6,3.1H149C148.4,80.2,147.3,77.7,145.8,76 M131.1,100.7c1.9,1.9,4.8,2.8,8.4,2.8c2.6,0,4.9-0.7,6.8-2
		c1.9-1.3,3-2.7,3.5-4.1h11.4c-1.8,5.6-4.6,9.6-8.4,12c-3.8,2.4-8.4,3.6-13.7,3.6c-3.7,0-7.1-0.6-10.1-1.8c-3-1.2-5.5-2.9-7.6-5
		c-2.1-2.2-3.7-4.8-4.8-7.8c-1.1-3-1.7-6.3-1.7-10c0-3.5,0.6-6.8,1.7-9.8c1.2-3,2.8-5.6,4.9-7.8c2.1-2.2,4.7-3.9,7.6-5.2
		c3-1.3,6.2-1.9,9.8-1.9c4,0,7.5,0.8,10.5,2.3c3,1.5,5.4,3.6,7.4,6.2c1.9,2.6,3.3,5.6,4.2,8.9c0.9,3.3,1.2,6.8,0.9,10.4h-34.1
		C128.1,95.8,129.1,98.8,131.1,100.7"/>
	<polygon class="st1" points="217.3,47.2 217.3,90.6 217.2,90.6 189.9,47.2 175.6,47.2 175.6,111.9 189.1,111.9 189.1,68.6 
		189.2,68.6 216.4,111.9 230.8,111.9 230.8,47.2 	"/>
	<path class="st1" d="M238,111.9h13V65.1h-13V111.9z M238,57.8h13V47.2h-13V57.8z"/>
	<path class="st1" d="M279.2,73.5c-2.1,0-3.8,0.5-5.2,1.4c-1.4,0.9-2.5,2.1-3.4,3.6c-0.9,1.5-1.5,3.1-1.9,4.9
		c-0.4,1.8-0.6,3.6-0.6,5.3c0,1.7,0.2,3.4,0.6,5.2c0.4,1.8,1,3.3,1.8,4.8c0.8,1.4,1.9,2.6,3.3,3.5c1.4,0.9,3.1,1.4,5.1,1.4
		c3.1,0,5.5-0.9,7.2-2.6c1.7-1.7,2.7-4,3.2-6.9h12.5c-0.9,6.2-3.3,11-7.3,14.2c-4,3.3-9.2,4.9-15.5,4.9c-3.5,0-6.8-0.6-9.7-1.8
		c-3-1.2-5.5-2.8-7.5-4.9c-2.1-2.1-3.7-4.6-4.9-7.6c-1.2-2.9-1.7-6.1-1.7-9.6c0-3.6,0.5-7,1.6-10.1c1.1-3.1,2.6-5.8,4.7-8.1
		c2.1-2.3,4.6-4,7.6-5.3c3-1.3,6.4-1.9,10.2-1.9c2.8,0,5.5,0.4,8.1,1.1c2.6,0.7,4.9,1.8,7,3.3c2,1.5,3.7,3.3,5,5.5
		c1.3,2.2,2,4.8,2.2,7.8h-12.7C287.9,76.2,284.7,73.5,279.2,73.5"/>
	<path class="st1" d="M334.7,76c-1.6-1.7-3.9-2.5-7.1-2.5c-2.1,0-3.8,0.3-5.2,1c-1.4,0.7-2.5,1.6-3.3,2.6c-0.8,1-1.4,2.1-1.7,3.3
		c-0.3,1.2-0.5,2.2-0.6,3.1h21.1C337.3,80.2,336.2,77.7,334.7,76 M320,100.7c1.9,1.9,4.8,2.8,8.4,2.8c2.6,0,4.9-0.6,6.8-1.9
		s3-2.7,3.5-4.1h11.4c-1.8,5.6-4.6,9.6-8.4,12.1c-3.8,2.4-8.4,3.6-13.7,3.6c-3.7,0-7.1-0.6-10.1-1.8c-3-1.2-5.5-2.9-7.6-5
		c-2.1-2.2-3.7-4.8-4.8-7.8c-1.1-3-1.7-6.3-1.7-10c0-3.5,0.6-6.8,1.7-9.8c1.2-3,2.8-5.6,4.9-7.8c2.1-2.2,4.7-3.9,7.6-5.2
		c3-1.3,6.2-1.9,9.8-1.9c4,0,7.5,0.8,10.5,2.3c3,1.5,5.4,3.6,7.4,6.2c1.9,2.6,3.3,5.6,4.2,8.9c0.9,3.3,1.2,6.8,0.9,10.4h-34.1
		C317,95.8,318,98.8,320,100.7"/>
	<path class="st1" d="M428.5,111.9h13V65.1h-13V111.9z M428.5,57.9h13V47.3h-13V57.9z"/>
	<path class="st1" d="M475.8,65.1v8.6h-9.5v23.2c0,2.2,0.4,3.6,1.1,4.3c0.7,0.7,2.2,1.1,4.4,1.1c0.7,0,1.4,0,2.1-0.1
		c0.7-0.1,1.3-0.2,1.9-0.3v10c-1.1,0.2-2.3,0.3-3.7,0.4c-1.3,0.1-2.7,0.1-3.9,0.1c-2,0-3.9-0.1-5.7-0.4c-1.8-0.3-3.4-0.8-4.8-1.6
		c-1.4-0.8-2.5-1.9-3.2-3.3c-0.8-1.5-1.2-3.3-1.2-5.7V73.7h-7.9v-8.6h7.9v-14h13v14H475.8z"/>
	<path class="st1" d="M502.2,73.5c-2.1,0-3.8,0.5-5.2,1.4c-1.4,0.9-2.5,2.1-3.4,3.6c-0.9,1.5-1.5,3.1-1.9,4.9
		c-0.4,1.8-0.6,3.6-0.6,5.3c0,1.7,0.2,3.4,0.6,5.2c0.4,1.8,1,3.3,1.8,4.8c0.8,1.4,1.9,2.6,3.3,3.5c1.4,0.9,3.1,1.4,5.1,1.4
		c3.1,0,5.5-0.9,7.2-2.6c1.7-1.7,2.7-4,3.2-6.9h12.5c-0.9,6.2-3.3,11-7.3,14.2c-4,3.3-9.2,4.9-15.5,4.9c-3.5,0-6.8-0.6-9.7-1.8
		c-3-1.2-5.5-2.8-7.5-4.9c-2.1-2.1-3.7-4.6-4.9-7.6c-1.2-2.9-1.7-6.1-1.7-9.6c0-3.6,0.5-7,1.6-10.1c1.1-3.1,2.6-5.8,4.7-8.1
		c2.1-2.3,4.6-4,7.6-5.3c3-1.3,6.4-1.9,10.2-1.9c2.8,0,5.5,0.4,8.1,1.1c2.6,0.7,4.9,1.8,7,3.3c2,1.5,3.7,3.3,5,5.5
		c1.3,2.2,2,4.8,2.2,7.8h-12.7C510.9,76.2,507.7,73.5,502.2,73.5"/>
	<path class="st1" d="M541.8,47.3v24.4h0.3c1.7-2.7,3.8-4.7,6.3-5.9c2.6-1.2,5.1-1.9,7.5-1.9c3.5,0,6.3,0.5,8.5,1.4
		c2.2,0.9,4,2.2,5.3,3.9c1.3,1.7,2.2,3.7,2.7,6.1c0.5,2.4,0.8,5,0.8,7.9v28.8h-13V85.5c0-3.9-0.6-6.7-1.8-8.7
		c-1.2-1.9-3.4-2.8-6.5-2.8c-3.5,0-6.1,1-7.7,3.1c-1.6,2.1-2.4,5.5-2.4,10.3v24.5h-13V47.3H541.8z"/>
	<path class="st1" d="M607.8,76.1c-1.6-1.7-3.9-2.5-7.1-2.5c-2.1,0-3.8,0.3-5.2,1s-2.5,1.6-3.3,2.6c-0.8,1-1.4,2.1-1.7,3.3
		c-0.3,1.2-0.5,2.2-0.6,3.1h21.1C610.5,80.2,609.4,77.7,607.8,76.1 M593.1,100.7c1.9,1.9,4.8,2.8,8.4,2.8c2.6,0,4.9-0.7,6.8-2
		s3.1-2.7,3.5-4.1h11.4c-1.8,5.6-4.6,9.6-8.4,12.1c-3.8,2.4-8.4,3.6-13.7,3.6c-3.7,0-7.1-0.6-10.1-1.8c-3-1.2-5.5-2.9-7.6-5
		c-2.1-2.2-3.7-4.8-4.8-7.8c-1.1-3-1.7-6.3-1.7-10c0-3.5,0.6-6.8,1.7-9.8c1.2-3,2.8-5.6,4.9-7.8c2.1-2.2,4.7-3.9,7.6-5.2
		c3-1.3,6.2-1.9,9.8-1.9c4,0,7.5,0.8,10.5,2.3c3,1.5,5.4,3.6,7.4,6.2c1.9,2.6,3.3,5.6,4.2,8.9c0.9,3.3,1.2,6.8,0.9,10.4h-34.1
		C590.1,95.8,591.2,98.8,593.1,100.7"/>
	<path class="st1" d="M640.3,65.1v6.5h0.3c1.7-2.7,3.8-4.7,6.4-5.9c2.6-1.2,5.3-1.9,8-1.9c3.5,0,6.3,0.5,8.6,1.4
		c2.2,0.9,4,2.2,5.3,3.9c1.3,1.7,2.2,3.7,2.7,6.1c0.5,2.4,0.8,5,0.8,7.9v28.8h-13V85.5c0-3.9-0.6-6.7-1.8-8.7
		c-1.2-1.9-3.4-2.8-6.5-2.8c-3.5,0-6.1,1-7.7,3.1c-1.6,2.1-2.4,5.5-2.4,10.3v24.5h-13V65.1H640.3z"/>
	<polygon class="st1" points="8.5,47.2 8.5,59.1 27.9,59.1 27.9,111.8 42.1,111.8 42.1,59.1 61.5,59.1 61.5,47.2 	"/>
	<polygon class="st1" points="405.2,47.3 380,74.1 380,47.3 365.7,47.3 365.7,111.9 380,111.9 380,91.1 388.1,82.9 407.6,111.9 
		425.4,111.9 397.7,72.8 423,47.3 	"/>
	<path class="st1" d="M679,68.7h0.6c0.7,0,1.2-0.2,1.2-0.8c0-0.5-0.3-0.8-1.1-0.8c-0.3,0-0.5,0-0.7,0.1V68.7z M679,71.6h-1.2v-5.1
		c0.5-0.1,1.1-0.2,2-0.2c1,0,1.4,0.2,1.8,0.4c0.3,0.2,0.5,0.6,0.5,1.1c0,0.6-0.4,1-1.1,1.2v0.1c0.5,0.2,0.8,0.6,0.9,1.3
		c0.2,0.8,0.3,1.1,0.4,1.3H681c-0.2-0.2-0.2-0.7-0.4-1.3c-0.1-0.6-0.4-0.8-1.1-0.8H679V71.6z M675.8,68.9c0,2.3,1.7,4.1,4,4.1
		c2.2,0,3.9-1.8,3.9-4.1c0-2.3-1.7-4.1-3.9-4.1S675.8,66.7,675.8,68.9 M685,68.9c0,2.9-2.3,5.2-5.3,5.2c-2.9,0-5.3-2.3-5.3-5.2
		c0-2.8,2.3-5.1,5.3-5.1C682.8,63.8,685,66.1,685,68.9"/>
</g>
</svg>
